<?xml version="1.0" encoding="UTF-8"?>
<!-- Generated by Pixelmator Pro 3.7.1 -->
<svg width="597" height="517" viewBox="0 0 597 517" xmlns="http://www.w3.org/2000/svg">
    <g id="Group-copy">
        <path id="Path" fill="none" stroke="#000000" stroke-width="20" stroke-linecap="round" stroke-linejoin="round" d="M 566 234 C 566 234 526.793762 312.330872 553 419"/>
        <path id="path1" fill="none" stroke="#000000" stroke-width="20" stroke-linecap="round" stroke-linejoin="round" d="M 484 475 C 484 475 509.339508 449.871918 512 400 C 515.485474 334.663635 486.052124 187.258331 276 176 C 65.947868 164.741669 15.454769 306.568481 28 403"/>
        <path id="Circle" fill="#000000" fill-rule="evenodd" stroke="#000000" stroke-width="20" stroke-linecap="round" stroke-linejoin="round" d="M 184 334 C 184 306.385773 161.614227 284 134 284 C 106.385765 284 84 306.385773 84 334 C 84 361.614258 106.385765 384 134 384 C 161.614227 384 184 361.614258 184 334 Z"/>
        <path id="Circle-copy-2" fill="#000000" fill-rule="evenodd" stroke="#000000" stroke-width="20" stroke-linecap="round" stroke-linejoin="round" d="M 415 341 C 415 313.385773 392.614227 291 365 291 C 337.385773 291 315 313.385773 315 341 C 315 368.614258 337.385773 391 365 391 C 392.614227 391 415 368.614258 415 341 Z"/>
        <path id="path2" fill="#000000" fill-rule="evenodd" stroke="#000000" stroke-width="20" stroke-linecap="round" stroke-linejoin="round" d="M 410.703766 69.5961 C 410.703766 69.5961 481.442169 39.963043 492.500153 121.151917"/>
        <path id="path3" fill="none" stroke="#000000" stroke-width="20" stroke-linecap="round" stroke-linejoin="round" d="M 509 28.5 C 509 18.835022 501.164978 11 491.5 11 C 481.835022 11 474 18.835022 474 28.5 C 474 38.164978 481.835022 46 491.5 46 C 501.164978 46 509 38.164978 509 28.5 Z"/>
        <path id="Line" fill="none" stroke="#000000" stroke-width="20" stroke-linecap="round" stroke-linejoin="round" d="M 483 44 L 465 74"/>
        <path id="path4" fill="none" stroke="#000000" stroke-width="20" stroke-linecap="round" stroke-linejoin="round" d="M 246 503 C 287.764313 506.570862 378.60611 517.486328 477 479 C 576.706177 440.000366 584 365 584 365 C 584 365 611.42926 213.902893 482 116 C 342.903381 10.784546 196.267395 70.727753 169 85 C 130.098343 105.361847 15.424594 164.430511 11 330 C 7.513298 460.473328 149.63176 494.760468 246 503 Z"/>
    </g>
</svg>
