<?xml version="1.0" encoding="UTF-8"?>
<!-- Generated by Pixelmator Pro 3.7.1 -->
<svg width="619" height="540" viewBox="0 0 619 540" xmlns="http://www.w3.org/2000/svg">
    <g id="Group-copy">
        <path id="Path" fill="none" stroke="#000000" stroke-width="43" stroke-linecap="round" stroke-linejoin="round" d="M 495 486 C 495 486 520.339539 460.871918 523 411 C 526.485474 345.663635 497.052124 198.258331 287 187 C 76.947868 175.741669 26.454769 317.568481 39 414"/>
        <path id="Circle" fill="#000000" fill-rule="evenodd" stroke="#000000" stroke-width="20" stroke-linecap="round" stroke-linejoin="round" d="M 195 345 C 195 317.385773 172.614227 295 145 295 C 117.385765 295 95 317.385773 95 345 C 95 372.614258 117.385765 395 145 395 C 172.614227 395 195 372.614258 195 345 Z"/>
        <path id="Circle-copy-2" fill="#000000" fill-rule="evenodd" stroke="#000000" stroke-width="20" stroke-linecap="round" stroke-linejoin="round" d="M 426 352 C 426 324.385773 403.614227 302 376 302 C 348.385773 302 326 324.385773 326 352 C 326 379.614258 348.385773 402 376 402 C 403.614227 402 426 379.614258 426 352 Z"/>
        <path id="path1" fill="#000000" fill-rule="evenodd" stroke="#000000" stroke-width="20" stroke-linecap="round" stroke-linejoin="round" d="M 421.703766 80.5961 C 421.703766 80.5961 492.442169 50.963043 503.500153 132.151917"/>
        <path id="path2" fill="none" stroke="#000000" stroke-width="43" stroke-linecap="round" stroke-linejoin="round" d="M 520 39.5 C 520 29.835022 512.164978 22 502.5 22 C 492.835022 22 485 29.835022 485 39.5 C 485 49.164978 492.835022 57 502.5 57 C 512.164978 57 520 49.164978 520 39.5 Z"/>
        <path id="Line" fill="none" stroke="#000000" stroke-width="43" stroke-linecap="round" stroke-linejoin="round" d="M 494 55 L 476 85"/>
        <path id="path3" fill="none" stroke="#000000" stroke-width="43" stroke-linecap="round" stroke-linejoin="round" d="M 257 514 C 298.764313 517.570862 389.60611 528.486328 488 490 C 587.706177 451.000366 595 376 595 376 C 595 376 622.42926 224.902893 493 127 C 353.903381 21.784546 207.267395 81.727753 180 96 C 141.098343 116.361847 26.424593 175.430511 22 341 C 18.513298 471.473328 160.63176 505.760468 257 514 Z"/>
    </g>
</svg>
