<?xml version="1.0" encoding="UTF-8"?>
<svg id="a" data-name="Layer 1" xmlns="http://www.w3.org/2000/svg" viewBox="0 0 385.06 189.94">
  <defs>
    <style>
      .b {
        fill: #414752;
      }

      .c {
        fill: #fff;
      }
    </style>
  </defs>
  <path class="b" d="M143.03,56.53c-22.11-28.86-65.34-31.36-91.53-6.46-26.45,25.14-25.9,67.41,1.06,91.75,27.12,24.48,68.68,20.55,91.42-7.92l28.51,15.93c-33.36,46.96-99.55,53.46-141.37,15.46C-10.58,127.38-10.33,61.79,31.63,24.19c41.85-37.5,107.65-30.77,140.82,15.84l-29.42,16.5Z"/>
  <path class="c" d="M143.03,56.53c-9.7,5.44-18.09,11.76-28.01,16.47-12.81-11.25-31.48-10.29-42.74,1.79-11.2,12.01-10.86,30.78.97,42.34s30.23,11.76,42.61-.02l28.13,16.79c-22.74,28.47-64.31,32.39-91.42,7.92-26.96-24.34-27.51-66.61-1.06-91.75,26.2-24.9,69.42-22.4,91.53,6.46Z"/>
  <g>
    <path class="c" d="M217.84,90.99c-4.07.65-7.73.58-11.62.15-.95-.65-.67-2.67-1.51-3.9-3.92,3.66-8.51,5.19-13.68,4.42-4.68-.7-9.37-3.44-12.03-8.35-3.98-7.35-4.12-16.55.15-23.85,5.47-9.33,17.67-10.84,25.44-3.86,1.04-6.21,6.57-3.4,13.08-3.69l.17,39.08ZM205.51,72.43c.45-6.03-3.52-10.77-8.88-10.54s-8.46,4.82-8.2,10.17c.25,5,3.44,8.94,8.09,9.15s8.58-3.34,8.99-8.78Z"/>
    <path class="c" d="M253.84,91.31l-.24-21.96c-.05-4.57-3.06-7.62-7.25-7.76s-7.73,2.93-7.75,7.78l-.12,21.68c-4.07.57-7.94.58-12.11,0l.09-39.04c3.9-.49,7.42-.26,11.37-.22.88,1.05.61,2.34,1.6,3.8,5.05-4.19,11.47-5.49,17.76-2.89,5.15,2.14,8.56,8.04,8.55,14.67v23.74c-3.82.49-6.84.3-11.9.2Z"/>
    <path class="c" d="M331.73,81.44c8.12,3.4,3.78-5.6,21.62-2.97-1.69,8.71-9.86,13.26-18.22,13.4-12.01.2-20.24-8.68-20.15-20.49.08-11.61,8.16-20.35,20.06-20.09,5.96.13,11.55,2.1,15.13,6.47,3.66,4.47,5.28,10.72,4.08,16.56l-26.89.24c-.16,3.59,2.32,6.03,4.38,6.89ZM342.16,67.85c-.38-5.29-4.12-7.16-8.58-6.71-2.97.3-6.08,2.8-6.13,6.77,4.84.38,9.57.49,14.71-.06Z"/>
    <path class="c" d="M285.43,77.11c1.27,3.27,3.77,3.9,5.94,4.37,6.78,1.47.29-6.67,19.07-4.32-1.17,9.57-9.94,14.97-19.16,14.74-11.69-.28-19.38-9-19.3-20.54.08-11.67,8.16-20.27,20.05-20.16,8.86.08,16.81,4.98,18.57,14.54-18.32,2.71-12.58-4.8-18.35-4.17-2.8.31-5.66,1.18-6.85,4.47s-1.41,7.37.03,11.07Z"/>
    <path class="c" d="M384.75,63.4c-.13,1.02-2.74.92-3.66.9-5.2-.14-8.46,3.04-8.49,8.04l-.11,18.69c-3.84.64-7.38.4-11.99.18l-.05-39.2c4.16-.46,7.93-.43,11.88-.02.26,1.9-.13,3.58,1.01,5.41,3.19-3.27,6.57-6.19,11.42-5.78.28,3.91.53,7.66,0,11.78Z"/>
  </g>
  <g>
    <path class="c" d="M217.84,138.87c-4.07.65-7.73.58-11.62.15-.95-.65-.66-2.67-1.51-3.9-3.92,3.66-8.51,5.19-13.69,4.42-4.68-.7-9.37-3.44-12.03-8.35-3.98-7.35-4.12-16.55.15-23.85,5.46-9.33,17.67-10.84,25.44-3.86,1.04-6.21,6.57-3.4,13.08-3.69l.17,39.08ZM205.51,120.31c.45-6.03-3.51-10.77-8.88-10.54s-8.46,4.82-8.2,10.17c.25,5,3.44,8.94,8.09,9.15,4.86.23,8.58-3.34,8.99-8.78Z"/>
    <path class="c" d="M271.73,129.32c8.12,3.4,3.78-5.6,21.62-2.97-1.69,8.7-9.86,13.26-18.22,13.4-12.01.2-20.24-8.68-20.15-20.49.08-11.61,8.16-20.35,20.06-20.09,5.96.13,11.55,2.1,15.13,6.47,3.66,4.47,5.28,10.72,4.08,16.56l-26.89.24c-.16,3.59,2.32,6.03,4.38,6.89ZM282.16,115.73c-.38-5.29-4.12-7.16-8.58-6.71-2.97.3-6.08,2.8-6.13,6.77,4.84.38,9.57.49,14.71-.06Z"/>
    <path class="c" d="M250.75,111.28c-.13,1.03-2.74.92-3.66.9-5.2-.14-8.46,3.04-8.49,8.04l-.11,18.69c-3.84.64-7.38.4-11.99.18l-.05-39.2c4.16-.46,7.93-.43,11.88-.02.26,1.9-.13,3.58,1.01,5.41,3.19-3.27,6.57-6.19,11.42-5.78.28,3.91.53,7.66,0,11.78Z"/>
  </g>
</svg>