<?xml version="1.0" encoding="UTF-8"?>
<svg id="a" data-name="Layer 1" xmlns="http://www.w3.org/2000/svg" viewBox="0 0 172.48 189.94">
  <defs>
    <style>
      .b {
        fill: #fefefe;
      }

      .c {
        fill: #404652;
      }
    </style>
  </defs>
  <path class="c" d="M143.03,56.53l-3.39-1.02c-36.64-41.73-106.32-15.58-105.64,40.71.67,56.17,70.22,80.26,106.54,38.67l3.44-1,28.51,15.94c-33.36,46.96-99.55,53.45-141.36,15.45C-10.58,127.37-10.33,61.79,31.63,24.19s107.65-30.77,140.82,15.84l-29.42,16.5Z"/>
  <path class="b" d="M143.03,56.53c-9.7,5.44-18.1,11.74-28.01,16.47-12.81-11.25-31.48-10.29-42.74,1.78-11.2,12.01-10.86,30.78.97,42.34s30.23,11.76,42.61-.03l28.12,16.79c-22.73,28.47-64.31,32.39-91.42,7.92-26.96-24.33-27.51-66.61-1.06-91.75s69.42-22.4,91.53,6.46Z"/>
</svg>